<svg width="32" height="32" viewBox="0 0 32 32" fill="none" xmlns="http://www.w3.org/2000/svg">
<path fill-rule="evenodd" clip-rule="evenodd" d="M10.7526 8.65852C11.1163 8.24288 11.0741 7.61112 10.6585 7.24744C10.2429 6.88375 9.61111 6.92587 9.24742 7.34151L2.25161 15.3367C2.09506 15.5132 2 15.7455 2 16C2 16 2 16 2 16C2 16.0037 2.00002 16.0074 2.00006 16.0111C2.00276 16.26 2.09643 16.4871 2.24939 16.6608L9.24742 24.6585C9.61111 25.0742 10.2429 25.1163 10.6585 24.7526C11.0741 24.3889 11.1163 23.7571 10.7526 23.3415L5.20376 17H29C29.5523 17 30 16.5523 30 16C30 15.4477 29.5523 15 29 15H5.20378L10.7526 8.65852Z" fill="#333333"/>
</svg>
