<svg width="24" height="24" viewBox="0 0 24 24" fill="none" xmlns="http://www.w3.org/2000/svg">
<path fill-rule="evenodd" clip-rule="evenodd" d="M12.7499 8.27664V6C12.7499 5.58579 12.4142 5.25 11.9999 5.25C11.5857 5.25 11.2499 5.58579 11.2499 6V8.27664C10.6973 8.31605 10.1566 8.39866 9.6309 8.52114L8.96146 6.51282C8.83047 6.11986 8.40574 5.90749 8.01278 6.03848C7.61982 6.16947 7.40745 6.59421 7.53844 6.98716L8.19826 8.96663C7.78637 9.12827 7.38702 9.31539 7.00204 9.52606L5.87398 7.83397C5.64421 7.48932 5.17856 7.39619 4.83391 7.62596C4.48927 7.85572 4.39614 8.32137 4.6259 8.66602L5.74066 10.3382C5.39173 10.5996 5.05922 10.8823 4.74496 11.1844L3.53027 9.96967C3.23738 9.67678 2.7625 9.67678 2.46961 9.96967C2.17672 10.2626 2.17672 10.7374 2.46961 11.0303L3.73757 12.2983C3.16414 13.029 2.68263 13.8372 2.31068 14.7044C2.1474 15.085 2.32363 15.526 2.70431 15.6893C3.08498 15.8526 3.52594 15.6763 3.68922 15.2956C4.45043 13.5209 5.73979 12.0399 7.35228 11.056C6.96765 11.786 6.74994 12.6176 6.74994 13.5C6.74994 16.3995 9.10044 18.75 11.9999 18.75C14.8994 18.75 17.2499 16.3995 17.2499 13.5C17.2499 12.6176 17.0322 11.786 16.6476 11.056C18.2601 12.0398 19.5495 13.5209 20.3107 15.2956C20.474 15.6763 20.9149 15.8526 21.2956 15.6893C21.6763 15.526 21.8525 15.085 21.6892 14.7044C21.3173 13.8372 20.8358 13.029 20.2623 12.2983L21.5303 11.0303C21.8232 10.7374 21.8232 10.2626 21.5303 9.96967C21.2374 9.67678 20.7625 9.67678 20.4696 9.96967L19.2549 11.1844C18.9407 10.8823 18.6082 10.5996 18.2592 10.3382L19.374 8.66602C19.6037 8.32137 19.5106 7.85572 19.166 7.62596C18.8213 7.39619 18.3557 7.48932 18.1259 7.83397L16.9978 9.52605C16.6129 9.31538 16.2135 9.12827 15.8016 8.96663L16.4614 6.98716C16.5924 6.59421 16.3801 6.16947 15.9871 6.03848C15.5941 5.90749 15.1694 6.11986 15.0384 6.51282L14.369 8.52113C13.8433 8.39865 13.3026 8.31605 12.7499 8.27664ZM8.24994 13.5C8.24994 11.4289 9.92887 9.75 11.9999 9.75C14.071 9.75 15.7499 11.4289 15.7499 13.5C15.7499 15.5711 14.071 17.25 11.9999 17.25C9.92887 17.25 8.24994 15.5711 8.24994 13.5ZM11.2499 13.5C11.2499 13.0858 11.5857 12.75 11.9999 12.75C12.4142 12.75 12.7499 13.0858 12.7499 13.5C12.7499 13.9142 12.4142 14.25 11.9999 14.25C11.5857 14.25 11.2499 13.9142 11.2499 13.5ZM11.9999 11.25C10.7573 11.25 9.74994 12.2574 9.74994 13.5C9.74994 14.7426 10.7573 15.75 11.9999 15.75C13.2426 15.75 14.2499 14.7426 14.2499 13.5C14.2499 12.2574 13.2426 11.25 11.9999 11.25Z" fill="#333333"/>
</svg>
