<svg width="32" height="32" viewBox="0 0 32 32" fill="none" xmlns="http://www.w3.org/2000/svg">
<path fill-rule="evenodd" clip-rule="evenodd" d="M4.98351 16.3977C4.21893 17.372 3.57692 18.4495 3.08098 19.6058C2.86328 20.1134 3.09826 20.7013 3.60583 20.919C4.11339 21.1367 4.70134 20.9018 4.91904 20.3942C5.93398 18.0279 7.65314 16.0532 9.80312 14.7414C9.29028 15.7147 9 16.8234 9 18C9 21.866 12.134 25 16 25C19.866 25 23 21.866 23 18C23 16.8234 22.7097 15.7146 22.1969 14.7414C24.3469 16.0531 26.066 18.0279 27.081 20.3942C27.2987 20.9018 27.8866 21.1367 28.3942 20.919C28.9018 20.7013 29.1367 20.1134 28.919 19.6058C28.4231 18.4495 27.7811 17.372 27.0165 16.3977L28.7071 14.7071C29.0976 14.3166 29.0976 13.6834 28.7071 13.2929C28.3166 12.9024 27.6834 12.9024 27.2929 13.2929L25.6733 14.9125C25.2543 14.5097 24.811 14.1328 24.3457 13.7842L25.8321 11.5547C26.1384 11.0952 26.0142 10.4743 25.5547 10.1679C25.0952 9.86159 24.4743 9.98576 24.168 10.4453L22.6639 12.7014C22.1506 12.4205 21.6181 12.171 21.0689 11.9555L21.9487 9.31622C22.1233 8.79228 21.8402 8.22596 21.3162 8.05131C20.7923 7.87666 20.226 8.15982 20.0513 8.68376L19.1587 11.3615C18.4578 11.1982 17.7368 11.0881 17 11.0355V8C17 7.44772 16.5523 7 16 7C15.4477 7 15 7.44772 15 8V11.0355C14.2632 11.0881 13.5422 11.1982 12.8413 11.3615L11.9487 8.68376C11.774 8.15982 11.2077 7.87666 10.6838 8.05131C10.1598 8.22596 9.87668 8.79228 10.0513 9.31622L10.9311 11.9555C10.3819 12.171 9.84944 12.4205 9.33613 12.7014L7.83205 10.4453C7.5257 9.98576 6.90483 9.86159 6.4453 10.1679C5.98577 10.4743 5.8616 11.0952 6.16795 11.5547L7.6543 13.7842C7.18906 14.1328 6.74571 14.5098 6.3267 14.9125L4.70711 13.2929C4.31658 12.9024 3.68342 12.9024 3.29289 13.2929C2.90237 13.6834 2.90237 14.3166 3.29289 14.7071L4.98351 16.3977ZM11 18C11 15.2386 13.2386 13 16 13C18.7614 13 21 15.2386 21 18C21 20.7614 18.7614 23 16 23C13.2386 23 11 20.7614 11 18ZM15 18C15 17.4477 15.4477 17 16 17C16.5523 17 17 17.4477 17 18C17 18.5523 16.5523 19 16 19C15.4477 19 15 18.5523 15 18ZM16 15C14.3431 15 13 16.3431 13 18C13 19.6569 14.3431 21 16 21C17.6569 21 19 19.6569 19 18C19 16.3431 17.6569 15 16 15Z" fill="#333333"/>
</svg>
