<svg width="32" height="32" viewBox="0 0 32 32" fill="none" xmlns="http://www.w3.org/2000/svg">
<path fill-rule="evenodd" clip-rule="evenodd" d="M27.0809 9.60607C25.2098 13.9686 20.9451 17.0003 16 17.0003C11.0548 17.0003 6.79016 13.9686 4.91901 9.60607C4.70131 9.0985 4.11336 8.86352 3.6058 9.08123C3.09823 9.29893 2.86325 9.88688 3.08095 10.3944C3.57689 11.5507 4.21891 12.6282 4.98349 13.6025L3.29289 15.2932C2.90236 15.6837 2.90236 16.3168 3.29289 16.7074C3.68341 17.0979 4.31658 17.0979 4.7071 16.7074L6.32668 15.0878C6.74569 15.4905 7.18904 15.8675 7.65429 16.216L6.16794 18.4456C5.86159 18.9051 5.98576 19.526 6.44529 19.8323C6.90482 20.1387 7.52569 20.0145 7.83204 19.555L9.33611 17.2989C9.84942 17.5797 10.3819 17.8292 10.9311 18.0448L10.0513 20.684C9.87667 21.208 10.1598 21.7743 10.6838 21.949C11.2077 22.1236 11.774 21.8404 11.9487 21.3165L12.8413 18.6387C13.5422 18.8021 14.2632 18.9122 15 18.9647V22.0003C15 22.5525 15.4477 23.0003 16 23.0003C16.5523 23.0003 17 22.5525 17 22.0003V18.9647C17.7368 18.9122 18.4578 18.802 19.1587 18.6387L20.0513 21.3165C20.2259 21.8404 20.7923 22.1236 21.3162 21.949C21.8402 21.7743 22.1233 21.208 21.9487 20.684L21.0689 18.0447C21.6181 17.8292 22.1506 17.5797 22.6639 17.2988L24.1679 19.555C24.4743 20.0145 25.0952 20.1387 25.5547 19.8323C26.0142 19.526 26.1384 18.9051 25.832 18.4456L24.3457 16.216C24.8109 15.8674 25.2543 15.4905 25.6733 15.0878L27.2929 16.7074C27.6834 17.0979 28.3166 17.0979 28.7071 16.7074C29.0976 16.3168 29.0976 15.6837 28.7071 15.2932L27.0165 13.6025C27.7811 12.6282 28.4231 11.5507 28.919 10.3944C29.1367 9.88688 28.9017 9.29893 28.3942 9.08123C27.8866 8.86352 27.2987 9.0985 27.0809 9.60607Z" fill="#333333"/>
</svg>
