<svg width="24" height="24" viewBox="0 0 24 24" fill="none" xmlns="http://www.w3.org/2000/svg">
<path fill-rule="evenodd" clip-rule="evenodd" d="M12 6C7.54154 6 4.82225 9.07323 3.932 11.3624C3.73183 11.8772 3.15228 12.1322 2.63755 11.932C2.12282 11.7318 1.86782 11.1523 2.06799 10.6376C3.17774 7.78391 6.51733 4 12 4C17.4827 4 20.8223 7.78391 21.932 10.6376C22.1322 11.1523 21.8772 11.7318 21.3624 11.932C20.8477 12.1322 20.2682 11.8772 20.068 11.3624C19.1777 9.07323 16.4585 6 12 6ZM12 17C14.2091 17 16 15.2091 16 13C16 10.7909 14.2091 9 12 9C9.79086 9 8 10.7909 8 13C8 15.2091 9.79086 17 12 17ZM12 19C15.3137 19 18 16.3137 18 13C18 9.68629 15.3137 7 12 7C8.68629 7 6 9.68629 6 13C6 16.3137 8.68629 19 12 19ZM12 15C13.1046 15 14 14.1046 14 13C14 11.8954 13.1046 11 12 11C10.8954 11 10 11.8954 10 13C10 14.1046 10.8954 15 12 15Z" fill="#333333"/>
</svg>
