<svg width="92" height="32" viewBox="0 0 92 32" fill="none" xmlns="http://www.w3.org/2000/svg">
<path fill-rule="evenodd" clip-rule="evenodd" d="M20.1847 8.11346C20.1847 7.95759 20.2528 7.87695 20.4341 7.87695H21.1659C22.0452 7.87695 22.3338 8.48606 22.3338 8.98485C22.3338 9.50744 22.1078 9.75634 21.7615 9.91169V9.92507C22.3175 10.024 22.6462 10.41 22.6462 11.039C22.6462 11.705 22.2553 12.3077 21.3643 12.3077H20.4341C20.2523 12.3077 20.1847 12.228 20.1847 12.0716V8.11346ZM21.1889 9.7756H20.5932V8.28766H21.1997C21.6763 8.28766 21.9261 8.64245 21.9261 9.00318C21.9261 9.45199 21.6087 9.7756 21.1889 9.7756ZM21.3192 11.8985H20.5932V10.1483H21.3138C21.8693 10.1483 22.2377 10.51 22.2377 11.027C22.2377 11.5991 21.8914 11.8985 21.3192 11.8985ZM24.0552 12.1058L24.0477 12.1217L24.0477 12.1218C23.9989 12.2245 23.9595 12.3077 23.8198 12.3077C23.6959 12.3077 23.6307 12.2279 23.6307 12.136C23.6307 12.0868 23.6486 12.0139 23.6725 11.9521L25.024 8.19509L25.0248 8.19282L25.0249 8.19274C25.0773 8.05254 25.1429 7.87695 25.3543 7.87695C25.5651 7.87695 25.6308 8.05254 25.6832 8.19274L25.6832 8.19282L25.6841 8.19509L27.0356 11.9521C27.0591 12.0139 27.0769 12.0868 27.0769 12.136C27.0769 12.2279 27.0116 12.3077 26.8878 12.3077C26.7405 12.3077 26.6932 12.2162 26.6518 12.1058L26.3751 11.3221H24.333L24.0552 12.1058ZM25.3599 8.45144H25.3482L24.4742 10.9183H26.2334L25.3599 8.45144ZM28.5264 12.026C28.5264 12.2089 28.4423 12.3077 28.2941 12.3077C28.1458 12.3077 28.0617 12.2094 28.0617 12.026V8.13377C28.0617 7.96254 28.1653 7.87695 28.2941 7.87695C28.4228 7.87695 28.5008 7.94991 28.5649 8.03649L31.0308 11.4564H31.043V8.15861C31.043 7.97423 31.1277 7.87695 31.2754 7.87695C31.4232 7.87695 31.5078 7.97423 31.5078 8.15861V12.0382C31.5078 12.2464 31.4176 12.3077 31.2883 12.3077C31.1657 12.3077 31.1144 12.2528 31.0364 12.1481L28.5392 8.68446H28.5264V12.026ZM35.1475 8.76475C35.2436 8.76475 35.3515 8.68446 35.3515 8.53121C35.3515 8.31768 34.7404 7.87695 33.9745 7.87695C32.6379 7.87695 32 9.0094 32 10.1526C32 11.3168 32.6379 12.3077 34.0266 12.3077C34.8604 12.3077 35.4462 11.8854 35.4462 11.6957C35.4462 11.5425 35.3702 11.4749 35.2553 11.4749C35.2037 11.4749 35.1445 11.5168 35.0632 11.5744C34.8846 11.701 34.5991 11.9034 34.0519 11.9034C32.9569 11.9034 32.4982 11.0531 32.4982 10.1526C32.4982 9.26581 33.0146 8.2812 33.9694 8.2812C34.4691 8.2812 34.7411 8.49515 34.9232 8.63842C35.0148 8.71054 35.0837 8.76475 35.1475 8.76475ZM39.3845 10.0923C39.3845 8.98508 38.808 7.87695 37.6612 7.87695C36.5144 7.87695 35.9383 8.98508 35.9383 10.0923C35.9383 11.1995 36.5149 12.3077 37.6612 12.3077C38.808 12.3077 39.3845 11.1995 39.3845 10.0923ZM37.6612 8.2812C38.6147 8.2812 38.94 9.27209 38.94 10.0923C38.94 10.9125 38.6143 11.9034 37.6612 11.9034C36.7086 11.9034 36.3833 10.9125 36.3833 10.0923C36.3833 9.27209 36.7086 8.2812 37.6612 8.2812ZM20.8517 25.6C21.261 25.6 21.5188 25.3307 21.5188 24.8076V20.7385H26.2358V24.8076C26.2358 25.3303 26.494 25.6 26.9033 25.6C27.3126 25.6 27.5693 25.3307 27.5693 24.8076V15.5626C27.5693 15.0395 27.3126 14.7692 26.9033 14.7692C26.494 14.7692 26.2358 15.0399 26.2358 15.5626V19.6009H21.5188V15.5626C21.5188 15.0395 21.261 14.7692 20.8517 14.7692C20.4425 14.7692 20.1847 15.0399 20.1847 15.5626V24.8076C20.1847 25.3303 20.4425 25.6 20.8517 25.6ZM31.0154 15.577C31.0154 15.1293 30.6874 14.7692 30.2769 14.7692C29.8668 14.7692 29.5384 15.1289 29.5384 15.577C29.5384 16.026 29.8668 16.3847 30.2769 16.3847C30.6874 16.3847 31.0154 16.0266 31.0154 15.577ZM30.2769 25.6C30.6465 25.6 30.8791 25.3303 30.8791 24.8966V18.1647C30.8791 17.7315 30.6465 17.4613 30.2769 17.4613C29.9077 17.4613 29.6751 17.7315 29.6751 18.1647V24.8966C29.6751 25.3303 29.9081 25.6 30.2769 25.6ZM32.9847 17.9368C32.9847 17.502 33.2395 17.2308 33.6445 17.2308C34.0505 17.2308 34.3058 17.502 34.3058 17.9368V18.3282H34.3353C34.7112 17.6072 35.4169 17.2313 36.4683 17.2313C38.6302 17.2313 39.877 19.1989 39.877 21.3156C39.877 23.4333 38.6302 25.4005 36.4683 25.4005C35.4165 25.4005 34.6804 24.815 34.3353 24.3194H34.3058V27.8478C34.3058 28.2836 34.0505 28.5539 33.6445 28.5539C33.2395 28.5539 32.9847 28.2836 32.9847 27.8478V17.9368ZM36.363 24.2586C37.9854 24.2586 38.5554 22.667 38.5554 21.3146C38.5554 19.9643 37.9848 18.3721 36.363 18.3721C34.7412 18.3721 34.1707 19.9643 34.1707 21.3146C34.1707 22.6674 34.7412 24.2586 36.363 24.2586ZM47.7539 21.169C47.7539 19.128 46.517 17.2308 44.3078 17.2308C42.0985 17.2308 40.8617 19.128 40.8617 21.169C40.8617 23.211 42.0985 25.1077 44.3078 25.1077C46.517 25.1077 47.7539 23.211 47.7539 21.169ZM46.4583 21.1685C46.4583 22.4725 45.8988 24.0072 44.3078 24.0072C42.7172 24.0072 42.1582 22.4729 42.1577 21.1685C42.1577 19.8665 42.7172 18.3313 44.3078 18.3313C45.8983 18.3313 46.4583 19.8665 46.4583 21.1685ZM50.4618 15.2616C50.0859 15.2616 49.8491 15.5269 49.8491 15.9556V17.6541H49.3499C48.9462 17.6541 48.7384 17.8607 48.7384 18.2153C48.7384 18.5699 48.9462 18.7764 49.3499 18.7764H49.8491V24.9055C49.8491 25.3337 50.0859 25.6 50.4618 25.6C50.8371 25.6 51.0733 25.3337 51.0733 24.9055V18.7764H51.5736C51.9763 18.7764 52.1846 18.5699 52.1846 18.2153C52.1846 17.8607 51.9763 17.6541 51.5736 17.6541H51.0733V15.9556C51.0733 15.5269 50.8371 15.2616 50.4618 15.2616ZM56.2863 24.0072C54.8271 24.0072 53.9735 22.979 53.973 21.6623H58.8486C59.4083 21.6623 59.5695 21.4301 59.5695 20.9815C59.5695 19.128 58.3331 17.2308 56.1967 17.2308C54.0026 17.2308 52.6772 19.0847 52.6772 21.169C52.6772 23.211 53.767 25.1077 56.2706 25.1077C57.8025 25.1077 59.4083 24.1523 59.4083 23.5297C59.4083 23.1672 59.1727 22.9648 58.9359 22.9648C58.7677 22.9648 58.6042 23.0902 58.3913 23.254C57.9898 23.5624 57.4109 24.0072 56.2863 24.0072ZM56.1961 18.3322C57.6256 18.3322 58.2732 19.6064 58.2732 20.7074H53.973C54.0166 19.5347 54.5908 18.2741 56.1961 18.3322ZM66.954 18.2016C66.954 17.6794 66.1366 17.2308 64.7483 17.2308C62.2483 17.2308 61.0456 19.1281 61.0462 21.1688C61.0462 23.2108 62.2488 25.1077 64.7483 25.1077C66.1523 25.1077 66.908 24.5865 66.908 24.109C66.908 23.7618 66.6916 23.5738 66.3827 23.5738C66.2088 23.5738 66.0651 23.644 65.8933 23.728C65.6377 23.8528 65.3199 24.008 64.7483 24.008C63.0669 24.008 62.4042 22.4732 62.4042 21.1692C62.4042 19.8671 63.0669 18.3318 64.7483 18.3318C65.2761 18.3318 65.5681 18.4638 65.8189 18.5771C66.0078 18.6624 66.1732 18.7372 66.3984 18.7372C66.7219 18.7372 66.954 18.4622 66.954 18.2016ZM74.219 25.1077C74.4721 25.1077 74.8305 24.9332 74.8305 24.4851V17.8539C74.8305 17.4057 74.4721 17.2308 74.219 17.2308C73.952 17.2308 73.6093 17.4057 73.6093 17.8539V18.2596H73.5796C72.9693 17.6086 72.3299 17.2308 71.4222 17.2308C69.1886 17.2308 67.9383 19.128 67.9383 21.169C67.9383 23.211 69.1886 25.1077 71.4222 25.1077C72.27 25.1077 73.0135 24.7313 73.5796 23.9499H73.6093V24.4851C73.6093 24.9332 73.9514 25.1077 74.219 25.1077ZM73.5942 21.1685C73.5942 22.4725 73.0292 24.0072 71.4222 24.0072C69.8141 24.0072 69.2486 22.4729 69.2486 21.1685C69.2486 19.8665 69.8141 18.3313 71.4222 18.3313C73.0292 18.3313 73.5942 19.8665 73.5942 21.1685ZM76.9774 17.2308C76.5673 17.2308 76.3084 17.4923 76.3084 17.9116H76.3078V24.4268C76.3078 24.8466 76.5667 25.1077 76.9769 25.1077C77.3882 25.1077 77.6465 24.8466 77.6465 24.4268V20.7648C77.6465 19.2729 78.6182 18.7079 79.4106 18.5781C79.9727 18.4766 80.2461 18.2444 80.2461 17.8832C80.2461 17.5212 79.9732 17.2308 79.5014 17.2308C78.7264 17.2308 77.9811 17.9702 77.6774 18.5632H77.6471V17.9116C77.6471 17.4923 77.3882 17.2308 76.9774 17.2308ZM83.2001 15.577C83.2001 15.1293 82.8713 14.7692 82.4617 14.7692C82.0516 14.7692 81.7234 15.1289 81.7228 15.577C81.7228 16.026 82.051 16.3847 82.4617 16.3847C82.8713 16.3847 83.2001 16.0266 83.2001 15.577ZM82.4617 25.6C82.8312 25.6 83.0639 25.3303 83.0639 24.8966V18.1647C83.0639 17.7315 82.8312 17.4613 82.4617 17.4613C82.0923 17.4613 81.8607 17.7315 81.8607 18.1647V24.8966C81.8607 25.3303 82.0923 25.6 82.4617 25.6ZM88.1239 17.2308C90.3319 17.2308 91.5695 19.128 91.5695 21.169C91.5695 23.211 90.3319 25.1077 88.1239 25.1077C85.9148 25.1077 84.6772 23.211 84.6772 21.169C84.6772 19.128 85.9148 17.2308 88.1239 17.2308ZM88.1239 24.0072C89.714 24.0072 90.2738 22.4725 90.2738 21.1685C90.2738 19.8665 89.714 18.3313 88.1239 18.3313C86.5332 18.3313 85.9735 19.8665 85.9735 21.1685C85.9741 22.4729 86.5332 24.0072 88.1239 24.0072Z" fill="white"/>
<path fill-rule="evenodd" clip-rule="evenodd" d="M0 23.1385V0H16.2462V23.1375L13.742 21.6908L11.3747 20.3213L8.71529 18.7843L8.68009 18.7684C8.6455 18.7492 8.60924 18.7342 8.57289 18.7192L8.56343 18.7152C8.55324 18.7114 8.54326 18.7075 8.53337 18.7036C8.50955 18.6941 8.48623 18.6849 8.46173 18.6781C8.43553 18.6698 8.40909 18.6642 8.38205 18.6586C8.37127 18.6563 8.36038 18.654 8.34938 18.6515C8.3429 18.6504 8.33644 18.6492 8.32997 18.648C8.29895 18.6424 8.26803 18.6367 8.2361 18.6327C8.20487 18.6295 8.17428 18.6296 8.143 18.6298C8.13663 18.6298 8.13024 18.6298 8.12381 18.6298C8.11728 18.6298 8.11081 18.6298 8.10438 18.6298C8.07279 18.6296 8.04214 18.6295 8.01053 18.6327C7.97919 18.6368 7.94749 18.6424 7.91576 18.6481C7.90944 18.6493 7.90311 18.6504 7.89679 18.6515C7.88589 18.6541 7.87512 18.6564 7.8644 18.6588C7.8381 18.6645 7.81213 18.6702 7.78543 18.6781C7.75901 18.6852 7.73262 18.6957 7.70646 18.7061C7.69869 18.7092 7.69093 18.7123 7.6832 18.7152L7.67648 18.7181C7.63973 18.7335 7.60332 18.7488 7.56608 18.7684L7.53234 18.7843L4.87244 20.3213L2.50514 21.6908L0 23.1385ZM8.71209 21.322L11.3748 22.8131L13.742 24.1387L16.2462 25.5419V32H0V25.5429L2.50508 24.1387L4.87232 22.8131L7.53356 21.322C7.89318 21.1213 8.34002 21.118 8.70295 21.3145L8.71209 21.322Z" fill="white"/>
</svg>
